<?xml version="1.0" encoding="UTF-8"?>
<svg xmlns="http://www.w3.org/2000/svg" viewBox="0 0 380 380">
  <defs>
    <style>
      .cls-1 {
        fill: none;
        stroke: #000;
        stroke-miterlimit: 10;
      }

      .cls-2 {
        fill: #001a3c;
      }

      .cls-3 {
        fill: #534741;
      }

      .cls-4 {
        opacity: .33;
      }

      .cls-4, .cls-5, .cls-6 {
        mix-blend-mode: overlay;
      }

      .cls-7 {
        isolation: isolate;
      }

      .cls-5 {
        opacity: .19;
      }

      .cls-5, .cls-6 {
        fill: #fff;
      }

      .cls-8 {
        fill: #754c24;
      }

      .cls-6 {
        opacity: .5;
      }
    </style>
  </defs>
  <g class="cls-7">
    <g id="color">
      <path class="cls-8" d="M70.72,114.06l-7.84,11.43-16.54-8.03s7.09-16.35,8.6-18.43,18.24-27.87,29.29-39.02c5.6-5.64,12.53-12.77,21.73-19.37s20.14-12.35,32.98-17.57c25.98-10.58,34.11-10.49,53.95-10.49s32.13,3.21,46.68,7.56,26.46,9.26,38.36,18.33,34.2,26.65,49.7,52.54,10.58,24.85,10.58,24.85l-12.28,9.17-3.35,2.03-3.12-4.49s-10.02-15.73-14.55-20.74-28.96-27.54-28.96-27.54c0,0-12.24-9.59-16.63-11.01s-20.41-8.5-32.5-11.01-23.91-5.24-41.53-4.49-28.44,3.92-41.1,8.13-13.65,6.52-20.08,9.5-14.98,9.59-14.98,9.59l-13.65,12-17.62,18-7.13,9.07Z"/>
      <path class="cls-8" d="M63.86,200.4l10.17,20.91,62.79,120.43s4.96.8,7.61.66,15.59-2.93,18.28-4.06,9.31-5.06,9.87-8.83,1.28-13.61.66-15.5-9.26-19.04-9.26-19.04l-17.34-36-18.52-38.13-18.9-39.35s-1.46-3.5-4.2-4.44-8.65-.85-11.29-.47-13.51,3.26-13.51,3.26c0,0-9.17,5.01-11.76,7.61s-5.01,6.28-5.1,8.03.51,4.94.51,4.94"/>
      <path class="cls-3" d="M40.01,253.79l-11.91,11.44,1.06,3.61,5.31,16.7s5.01,14.98,6.05,16.58,7.65,12.9,7.65,12.9l12.09,19.51,15.12-1.42,1.32-.47-12.43-24.38s-4.49-8.69-7.28-15.21-13.89-31.61-13.89-31.61l-3.12-7.67Z"/>
      <path class="cls-8" d="M319.96,202.64l-9.04,18.91-62.63,120.08s-2.69,1.06-6.87.99-17.72-3.61-19.84-4.68-6.8-3.05-8.22-5.88-1.77-11.62-1.56-13.82-.5-3.61.21-5.17,64.49-132.94,64.49-132.94c0,0,2.48-2.91,4.11-3.26s6.17-.85,7.87-.57,16.16,3.54,16.16,3.54c0,0,3.54,1.7,5.03,2.83s8.93,5.88,9.85,8.01,2.27,3.12,2.41,5.81-1.96,6.14-1.96,6.14Z"/>
      <polyline class="cls-3" points="345.11 253.29 357.02 265.52 347.52 294.53 343.27 304.07 336.28 315.98 324.61 334.64 308.4 333.08 315.78 317.59 324.75 300.25 333.26 280.78 343.93 256.69 345.11 253.29"/>
      <path class="cls-2" d="M323.9,130.88l-.94-3.78,8.74-6.43,3.12,10.96,4.11,20.22,1.7,13.61-.33,11.01-1.94,16.68-2.6,15.21-.38,1.46s6.94,5.06,7.84,6.76,1.75,4.06,1.23,5.72-7.7,13.94-7.7,13.94c0,0-.9,1.28-.14,1.98s10.87,8.03,10.87,8.03l-2.88,8.36-11.01,25.46-7.61,17.57-6.52,12.52-8.03,16.02-4.82,9.31-4.77,8.08-15.87-4.63s-.61-.19-1.37.57-13.42,11.2-13.42,11.2l-6.38.66s-13.04-5.2-13.98-6.43-2.79-2.27-2.6-3.02,8.98-17.15,8.98-17.15l20.03-38.83,20.13-38.83,13.89-25.65s6.57-13.56,7.04-15.31,1.37-3.5,1.98-3.4,5.86,1.65,5.86,1.65c0,0,1.61-6.61,1.75-7.75s2.93-21.17,2.93-22.82-1.13-16.68-1.13-16.68c0,0-1.89-13.94-2.46-15.64s-3.31-10.63-3.31-10.63"/>
      <path class="cls-2" d="M59,138.81l3.54-13.36-9.71-4.25-.21.78-2.69,9.92s-3.15,16.26-3.19,16.37-2.34,16.19-2.34,16.19l.32,12.26,2.23,18.64,2.69,14.53s-6.52,4.61-7.58,6.17-2.09,4.54-1.59,5.88,7.72,13.39,7.9,14.49-.25,1.98-1.1,2.69-9.81,6.98-9.81,6.98l3.01,8.89,7.37,16.94,10.42,23.85,10.56,20.8,8.54,16.94,5.92,10.06,16.26-4.75,6.73,6.06s7.3,5.74,7.87,5.95,5.81.81,6.34.53,9.92-4.22,10.98-5.07,5.24-3.51,5.39-4.11-9.99-19.52-9.99-19.52l-11.37-21.97-9.32-18.25-12.86-24.77-13.07-24.63-9.81-18.6-4.85-11.06s-.14-.85-.92-.67-5.56,2.13-5.81,1.63-.71-5.07-.71-5.07l-2.34-21.08s-.32-13.75.04-16.41,1.13-11.2,1.13-11.2l2.06-11.8Z"/>
    </g>
    <g id="highlight">
      <path class="cls-5" d="M288.52,192.67c-10.39,5.86-12.28,9.07-20.22,24.94s-21.17,39.69-21.54,50.27-3.02,20.79,4.72,21.54,20.41-8.88,24-15.12,24.57-52.16,25.13-62.36,3.59-15.69-.38-19.84-11.72.57-11.72.57Z"/>
      <path class="cls-5" d="M96.94,192.29c10.39,5.86,12.28,9.07,20.22,24.94,7.94,15.87,21.17,39.69,21.54,50.27.38,10.58,3.02,20.79-4.72,21.54-7.75.76-20.41-8.88-24-15.12s-24.57-52.16-25.13-62.36c-.57-10.2-3.59-15.69.38-19.84s11.72.57,11.72.57Z"/>
      <path class="cls-6" d="M51.96,120.11S97.72,55.73,119.95,45.27c25.7-12.09,50.85-18.41,76.35-17.95,31.56.57,68.98,16.63,82.77,29.67,11.76,11.11,54.43,61.89,54.43,61.89l5.76-4.06s-10.3-22.68-14.46-28.44-9.83-13.89-12.09-15.97-21.26-21.64-24.76-24.19-21.64-16.06-27.69-18.52-22.02-8.6-33.26-10.96-31.94-5.57-46.11-3.97-28.25,4.16-42.8,10.39-30.8,16.16-36.28,19.94-24.28,23.72-27.59,27.87-17.76,23.62-21.64,32.31-6.33,14.17-6.33,14.17l2.13,1.44"/>
    </g>
    <g id="shadow">
      <polygon class="cls-4" points="328.65 189.7 339.7 182.4 335.66 209.89 326.31 204.15 328.65 189.7"/>
      <path class="cls-4" d="M336.37,237.11l-50.92,101.62,16.09,5.17,7.69-12.86,7.02-14.49,11.02-21.44,7.02-16.55,7.48-16.8,5.35-14.24.64-1.52s-9.99-7.12-10.45-7.65-.92-1.24-.92-1.24Z"/>
      <path class="cls-4" d="M48.56,237.41l51.22,101.53-16.3,4.93-8.36-14.42-6.48-13.11-8.82-17.29-9.21-20.73-7.65-17.65-5.6-14.78s7.94-5.39,9.04-6.45,2.17-2.03,2.17-2.03Z"/>
      <polygon class="cls-4" points="44.97 181.9 57.16 189.84 58.58 204.15 49.86 209.61 48.87 207.63 44.97 181.9"/>
    </g>
    <g id="Layer_2" data-name="Layer 2">
      <path class="cls-1" d="M114.28,350.85c7.37.85,4.82,1.13,12.76-2.27s9.92-6.52,9.92-6.52c0,0,8.22.85,14.17-.57s16.72-3.97,20.13-9.35,1.98-18.14,1.98-18.14l-64.35-133.23s-1.7-4.25-8.79-4.54-20.13,3.69-20.13,3.69c0,0-11.91,6.24-15.31,12.19s.57,10.77.57,10.77c0,0-6.24.57-10.77,3.69s-13.04,8.08-13.89,13.18,9.21,16.3,7.94,18-11.06,8.36-11.06,8.36l2.55,7.37-11.91,11.76s8.5,28.35,12.05,35.57,20.13,33.73,20.13,33.73l16.72-1.56,6.38,10.77,16.3-4.96s5.39,5.24,7.94,7.23,6.66,4.82,6.66,4.82Z"/>
      <path class="cls-1" d="M49.51,209.54s-6.38-32.17-4.82-46.91c1.42-13.4,5.97-37.67,8.13-41.55.12-.22,9.78,4.29,9.73,4.55-.65,3.11-4.77,17.24-5.39,22.82-.71,6.38-2.27,21.4-1.56,28.2s3.12,27.78,3.12,27.78"/>
      <path class="cls-1" d="M62.55,125.46l-15.94-7.67s4.94-12.61,9.09-20.17,29.29-45.54,57.26-61.61,50.08-23.43,77.86-23.62,56.88,8.69,72.19,16.82,43.28,30.24,58.39,52.35,17.76,33.64,17.76,33.64l-16.44,12.09s-13.04-22.3-25.51-33.26-23.81-27.02-48.57-34.96-30.8-10.77-59.34-11.34-50.65,10.2-65.95,17.95-36.66,29.29-44.22,37.98-16.58,21.97-16.58,21.97"/>
      <path class="cls-1" d="M77,332.99s-9.5-19.7-13.61-26.79-12.76-28.77-16.58-36.71-7.18-17.1-7.18-17.1"/>
      <path class="cls-1" d="M65.52,203.16s5.1,12.76,11.48,23.95,26.36,49.75,32.17,61.23,27.78,53.72,27.78,53.72"/>
      <path class="cls-1" d="M270.81,350.93c-7.37.85-4.82,1.13-12.76-2.27s-9.92-6.52-9.92-6.52c0,0-8.22.85-14.17-.57s-16.72-3.97-20.13-9.35-1.98-18.14-1.98-18.14l64.35-133.23s1.7-4.25,8.79-4.54c7.09-.28,20.13,3.69,20.13,3.69,0,0,11.91,6.24,15.31,12.19,3.4,5.95-.57,10.77-.57,10.77,0,0,6.24.57,10.77,3.69s13.04,8.08,13.89,13.18-9.21,16.3-7.94,18,11.06,8.36,11.06,8.36l-2.55,7.37,11.91,11.76s-8.5,28.35-12.05,35.57c-3.54,7.23-20.13,33.73-20.13,33.73l-16.72-1.56-6.38,10.77-16.3-4.96s-5.39,5.24-7.94,7.23-6.66,4.82-6.66,4.82Z"/>
      <path class="cls-1" d="M322.72,127.29s5.24,14.88,5.95,21.26,2.6,21.45,1.89,28.25c-.71,6.8-4.2,27.72-4.2,27.72"/>
      <path class="cls-1" d="M335.58,209.62s6.38-32.17,4.82-46.91c-1.35-12.81-6.53-36.2-8.7-41.85"/>
      <path class="cls-1" d="M345.48,252.34s-3.38,9.3-7.21,17.24-12.47,29.62-16.58,36.71-13.61,26.79-13.61,26.79"/>
      <path class="cls-1" d="M319.6,203.07s-5.14,12.94-11.52,24.13c-6.38,11.2-26.36,49.75-32.17,61.23-5.81,11.48-27.78,53.72-27.78,53.72"/>
    </g>
  </g>
</svg>